<?xml version="1.0" encoding="UTF-8" standalone="no"?>
<svg
   xmlns:dc="http://purl.org/dc/elements/1.1/"
   xmlns:cc="http://creativecommons.org/ns#"
   xmlns:rdf="http://www.w3.org/1999/02/22-rdf-syntax-ns#"
   xmlns:svg="http://www.w3.org/2000/svg"
   xmlns="http://www.w3.org/2000/svg"
   width="242.97461"
   height="14.80704"
   viewBox="0 0 242.97462 14.80704"
   id="svg2"
   version="1.1">
  <defs
     id="defs4" />
  <metadata
     id="metadata7">
    <rdf:RDF>
      <cc:Work
         rdf:about="">
        <dc:format>image/svg+xml</dc:format>
        <dc:type
           rdf:resource="http://purl.org/dc/dcmitype/StillImage" />
        <dc:title></dc:title>
      </cc:Work>
    </rdf:RDF>
  </metadata>
  <g
     id="text4156"
     style="font-style:normal;font-weight:normal;font-size:40px;line-height:125%;font-family:sans-serif;letter-spacing:0px;word-spacing:0px;fill:#000000;fill-opacity:0.75294118;stroke:none;stroke-width:1px;stroke-linecap:butt;stroke-linejoin:miter;stroke-opacity:1">
    <path
       id="path4138"
       style="font-style:normal;font-variant:normal;font-weight:normal;font-stretch:normal;font-size:20px;font-family:Nunito;-inkscape-font-specification:Nunito;letter-spacing:-1px;fill:#000000;fill-opacity:0.75294118"
       d="m 10.908204,13.93184 q 0.24414,0.644531 0.898437,0.644531 0.380859,0 0.683594,-0.24414 0.302734,-0.244141 0.302734,-0.615235 0,-0.15625 -0.07813,-0.361328 L 8.0761724,1.8419962 Q 7.7441411,1.0119181 7.3535161,0.74824619 6.9726567,0.47480869 6.3964849,0.47480869 q -0.5761719,0 -0.9667969,0.2734375 Q 5.0488286,1.0119181 4.7167974,1.8419962 L 0.07812548,13.355668 Q 4.7683716e-7,13.560746 4.7683716e-7,13.716996 q 0,0.371094 0.29296875316284,0.615235 0.30273437,0.24414 0.68359375,0.24414 0.66406252,0 0.90820312,-0.644531 l 1.1523438,-2.96875 6.71875,0 1.1523441,2.96875 z m -1.7089848,-4.3847657 -5.6054687,0 2.8027344,-7.2167969 2.8027343,7.2167969 z" />
    <path
       id="path4140"
       style="font-style:normal;font-variant:normal;font-weight:normal;font-stretch:normal;font-size:20px;font-family:Nunito;-inkscape-font-specification:Nunito;letter-spacing:-1px;fill:#000000;fill-opacity:0.75294118"
       d="m 16.109375,6.6173868 0,-4.4921875 3.105469,0 q 0.419922,0 0.722656,0.019531 0.302735,0.019531 0.703125,0.087891 0.400391,0.058594 0.673829,0.2050781 0.283203,0.1367188 0.537109,0.3613281 0.253906,0.2246094 0.380859,0.5957032 0.136719,0.3710937 0.136719,0.859375 0,0.5957031 -0.195312,1.0351562 -0.195313,0.4296875 -0.507813,0.6835938 -0.302734,0.2539062 -0.771484,0.4003906 -0.46875,0.1464844 -0.917969,0.1953125 -0.449219,0.048828 -1.025391,0.048828 l -2.841797,0 z m -0.996093,7.8906252 q 0.40039,0 0.693359,-0.244141 0.302734,-0.24414 0.302734,-0.693359 l 0,-5.4394533 3.261719,0 q 0.78125,0 1.240235,0.1171875 0.458984,0.1074219 0.761718,0.4394531 0.3125,0.3320313 0.449219,0.8300781 0.136719,0.4980466 0.234375,1.3867186 l 0.302734,2.72461 q 0.03906,0.419921 0.351563,0.654296 0.322266,0.22461 0.712891,0.22461 0.380859,0 0.654296,-0.244141 0.273438,-0.24414 0.273438,-0.634765 0,-0.08789 -0.0098,-0.136719 L 23.990235,10.425981 Q 23.6875,7.7892618 21.392579,7.2912149 l 0,-0.039063 q 1.464843,-0.2734375 2.207031,-1.1230468 0.742187,-0.8496094 0.742187,-2.0605469 0,-0.8398438 -0.292968,-1.4746094 Q 23.765625,1.9494181 23.306641,1.5783243 22.847657,1.1974649 22.173829,0.96308994 21.5,0.72871494 20.826172,0.65058994 20.16211,0.56269932 19.361329,0.56269932 l -4.238282,0 q -0.410156,0 -0.703125,0.28320312 -0.283203,0.27343746 -0.283203,0.67382816 l 0,12.0507814 q 0,0.449219 0.283203,0.693359 0.292969,0.244141 0.69336,0.244141 z" />
    <path
       id="path4142"
       style="font-style:normal;font-variant:normal;font-weight:normal;font-stretch:normal;font-size:20px;font-family:Nunito;-inkscape-font-specification:Nunito;letter-spacing:-1px;fill:#000000;fill-opacity:0.75294118"
       d="m 30.460938,14.517777 q 0.400391,0 0.693359,-0.253906 0.292969,-0.253906 0.292969,-0.693359 l 0,-11.4355471 3.632813,0 q 0.380859,0 0.595703,-0.234375 0.214843,-0.234375 0.214843,-0.5566406 0,-0.3222656 -0.214843,-0.54687498 -0.205078,-0.234375 -0.595703,-0.234375 l -9.28711,0 q -0.380859,0 -0.595703,0.234375 -0.214844,0.23437498 -0.214844,0.54687498 0,0.3222656 0.214844,0.5566406 0.214844,0.234375 0.595703,0.234375 l 3.681641,0 0,11.4355471 q 0,0.439453 0.292969,0.693359 0.292968,0.253906 0.693359,0.253906 z" />
    <path
       id="path4144"
       style="font-style:normal;font-variant:normal;font-weight:normal;font-stretch:normal;font-size:20px;font-family:Nunito;-inkscape-font-specification:Nunito;letter-spacing:-1px;fill:#000000;fill-opacity:0.75294118"
       d="m 37.839844,14.508012 q 0.410156,0 0.703125,-0.244141 0.292969,-0.24414 0.292969,-0.693359 l 0,-5.5078127 7.060547,0 0,5.5078127 q 0,0.439453 0.283203,0.693359 0.292969,0.244141 0.693359,0.244141 0.410157,0 0.703125,-0.244141 0.292969,-0.24414 0.292969,-0.693359 l 0,-12.0605471 q 0,-0.4492187 -0.292969,-0.69335933 -0.292968,-0.25390625 -0.693359,-0.25390625 -0.400391,0 -0.693359,0.25390625 -0.292969,0.25390623 -0.292969,0.69335933 l 0,4.9804688 -7.060547,0 0,-4.9804688 q 0,-0.4492187 -0.292969,-0.69335933 -0.283203,-0.25390625 -0.683594,-0.25390625 -0.410156,0 -0.703125,0.25390625 -0.292968,0.24414063 -0.292968,0.69335933 l 0,12.0605471 q 0,0.439453 0.283203,0.693359 0.292969,0.244141 0.693359,0.244141 z" />
    <path
       id="path4146"
       style="font-style:normal;font-variant:normal;font-weight:normal;font-stretch:normal;font-size:20px;font-family:Nunito;-inkscape-font-specification:Nunito;letter-spacing:-1px;fill:#000000;fill-opacity:0.75294118"
       d="m 55.892579,14.732621 q 0.888671,0 1.689453,-0.195312 0.810547,-0.195313 1.513672,-0.605469 0.703125,-0.410156 1.210937,-0.996094 0.517578,-0.595703 0.810547,-1.425781 0.302734,-0.839844 0.302734,-1.8457032 l 0,-8.1738281 q 0,-0.4492188 -0.292968,-0.70312501 -0.283204,-0.25390625 -0.683594,-0.25390625 -0.410156,0 -0.703125,0.25390625 -0.292969,0.25390621 -0.292969,0.70312501 l 0,8.125 q 0,0.8789063 -0.302734,1.5722653 -0.302735,0.69336 -0.810547,1.113282 -0.507813,0.419921 -1.132813,0.634765 -0.625,0.214844 -1.308593,0.214844 -0.683594,0 -1.308594,-0.214844 Q 53.96875,12.720902 53.460938,12.300981 52.962891,11.881059 52.660157,11.187699 52.357422,10.49434 52.357422,9.6154337 l 0,-8.125 q 0,-0.4492188 -0.292968,-0.70312501 -0.292969,-0.25390625 -0.69336,-0.25390625 -0.410156,0 -0.703125,0.25390625 Q 50.375,1.0412149 50.375,1.4904337 l 0,8.1738281 q 0,1.2402342 0.449219,2.2265622 0.449219,0.986328 1.220703,1.601563 0.771485,0.605469 1.748047,0.927734 0.986328,0.3125 2.09961,0.3125 z" />
    <path
       id="path4148"
       style="font-style:normal;font-variant:normal;font-weight:normal;font-stretch:normal;font-size:20px;font-family:Nunito;-inkscape-font-specification:Nunito;letter-spacing:-1px;fill:#000000;fill-opacity:0.75294118"
       d="m 65.9375,6.6173868 0,-4.4921875 3.105469,0 q 0.419922,0 0.722656,0.019531 0.302735,0.019531 0.703125,0.087891 0.400391,0.058594 0.673829,0.2050781 0.283203,0.1367188 0.537109,0.3613281 0.253906,0.2246094 0.380859,0.5957032 0.136719,0.3710937 0.136719,0.859375 0,0.5957031 -0.195312,1.0351562 -0.195313,0.4296875 -0.507813,0.6835938 -0.302734,0.2539062 -0.771484,0.4003906 -0.46875,0.1464844 -0.917969,0.1953125 -0.449219,0.048828 -1.025391,0.048828 l -2.841797,0 z m -0.996093,7.8906252 q 0.40039,0 0.693359,-0.244141 0.302734,-0.24414 0.302734,-0.693359 l 0,-5.4394533 3.261719,0 q 0.78125,0 1.240235,0.1171875 0.458984,0.1074219 0.761718,0.4394531 0.3125,0.3320313 0.449219,0.8300781 0.136719,0.4980466 0.234375,1.3867186 l 0.302734,2.72461 q 0.03906,0.419921 0.351563,0.654296 0.322266,0.22461 0.712891,0.22461 0.380859,0 0.654296,-0.244141 0.273438,-0.24414 0.273438,-0.634765 0,-0.08789 -0.0098,-0.136719 L 73.81836,10.425981 Q 73.515625,7.7892618 71.220704,7.2912149 l 0,-0.039063 q 1.464843,-0.2734375 2.207031,-1.1230468 0.742187,-0.8496094 0.742187,-2.0605469 0,-0.8398438 -0.292968,-1.4746094 -0.283204,-0.6445312 -0.742188,-1.015625 -0.458984,-0.3808594 -1.132812,-0.61523436 -0.673829,-0.234375 -1.347657,-0.3125 -0.664062,-0.0878906 -1.464843,-0.0878906 l -4.238282,0 q -0.410156,0 -0.703125,0.28320312 -0.283203,0.27343746 -0.283203,0.67382816 l 0,12.0507814 q 0,0.449219 0.283203,0.693359 0.292969,0.244141 0.69336,0.244141 z" />
    <path
       id="path4150"
       style="font-style:normal;font-variant:normal;font-weight:normal;font-stretch:normal;font-size:20px;font-family:Nunito;-inkscape-font-specification:Nunito;letter-spacing:-1px;fill:#000000;fill-opacity:0.75294118"
       d="m 77.4375,4.8986368 q 0.53711,0 0.585938,-0.5664062 l 0.273437,-3.57421878 q 0,-0.32226563 -0.24414,-0.49804688 -0.244141,-0.18554687 -0.595703,-0.18554687 -0.351563,0 -0.605469,0.18554687 -0.253906,0.17578125 -0.253906,0.49804688 0,0.009766 0.04883,0.69335938 0.05859,0.6738281 0.126953,1.5722656 0.06836,0.8886719 0.107422,1.3085938 0.03906,0.5664062 0.55664,0.5664062 z" />
    <path
       id="path4152"
       style="font-style:normal;font-variant:normal;font-weight:normal;font-stretch:normal;font-size:20px;font-family:Nunito;-inkscape-font-specification:Nunito;letter-spacing:-1px;fill:#000000;fill-opacity:0.75294118"
       d="m 85.587891,14.732621 q 2.421875,0 3.828125,-1.064453 1.416016,-1.064453 1.416016,-2.978516 0,-0.7910152 -0.244141,-1.3964839 Q 90.353516,8.6876993 89.865235,8.2580118 89.386719,7.8185587 88.791016,7.5158243 88.205079,7.2130899 87.355469,6.9396524 l -2.8125,-0.9082031 q -0.996094,-0.3320312 -1.455078,-0.78125 -0.449219,-0.4589844 -0.449219,-1.2207031 0,-1.015625 0.878907,-1.5527344 0.878906,-0.5371094 2.34375,-0.5371094 1.02539,0 1.923828,0.3320313 0.908203,0.3222656 1.503906,0.7128906 0.205078,0.1367188 0.429687,0.1367188 0.3125,0 0.53711,-0.2441407 0.224609,-0.2441406 0.224609,-0.546875 0,-0.2929687 -0.224609,-0.4882812 -0.664063,-0.5957031 -1.923828,-1.03515626 -1.25,-0.44921875 -2.626953,-0.44921875 -1.40625,0 -2.529297,0.43945313 -1.113282,0.43945308 -1.777344,1.29882808 -0.654297,0.859375 -0.654297,1.9921875 0,1.40625 0.761719,2.2070313 0.761719,0.8007812 2.314453,1.328125 l 2.802734,0.9375 q 0.625,0.2148437 1.015625,0.4003906 0.390625,0.1855469 0.69336,0.4589844 0.3125,0.2734375 0.439453,0.6445308 0.136719,0.361329 0.136719,0.878907 0,1.074218 -0.908204,1.640625 -0.898437,0.566406 -2.324218,0.566406 -2.1875,0 -3.847657,-1.289063 -0.107421,-0.07813 -0.24414,-0.07813 -0.302735,0 -0.605469,0.332032 -0.292969,0.332031 -0.292969,0.644531 0,0.185547 0.117188,0.292969 1.80664,1.679687 4.785156,1.679687 z" />
    <path
       id="path4154"
       style="font-style:normal;font-variant:normal;font-weight:normal;font-stretch:normal;font-size:20px;font-family:Nunito;-inkscape-font-specification:Nunito;letter-spacing:-1px;fill:#000000;fill-opacity:0.75294118"
       d="m 99.28125,7.0080118 0,-4.8828125 3.07617,0 q 1.61133,0 2.33399,0.546875 0.72265,0.546875 0.72265,1.8652344 0,1.3476562 -0.77148,1.9140625 -0.76172,0.5566406 -2.39258,0.5566406 l -2.96875,0 z m -0.986328,7.5097652 q 0.410157,0 0.69336,-0.24414 0.292968,-0.244141 0.292968,-0.69336 l 0,-5.0683589 2.97852,0 q 1.16211,0 2.06054,-0.2050782 0.89844,-0.2050781 1.5918,-0.6445312 0.70312,-0.4492188 1.07422,-1.2304688 0.37109,-0.7910156 0.37109,-1.8945312 0,-2.1191406 -1.25976,-3.046875 -1.25977,-0.92773438 -3.66211,-0.92773438 l -4.130862,0 q -0.419922,0 -0.712891,0.28320312 -0.283203,0.28320316 -0.283203,0.69335936 l 0,12.0410152 q 0,0.439454 0.292969,0.69336 0.292969,0.24414 0.693359,0.24414 z" />
    <path
       id="path4156"
       style="font-style:normal;font-variant:normal;font-weight:normal;font-stretch:normal;font-size:20px;font-family:Nunito;-inkscape-font-specification:Nunito;letter-spacing:-1px;fill:#000000;fill-opacity:0.75294118"
       d="m 118.0957,13.93184 q 0.24414,0.644531 0.89844,0.644531 0.38086,0 0.68359,-0.24414 0.30274,-0.244141 0.30274,-0.615235 0,-0.15625 -0.0781,-0.361328 L 115.26367,1.8419962 q -0.33203,-0.8300781 -0.72265,-1.09375001 -0.38086,-0.2734375 -0.95704,-0.2734375 -0.57617,0 -0.96679,0.2734375 -0.38086,0.26367191 -0.71289,1.09375001 l -4.63867,11.5136718 q -0.0781,0.205078 -0.0781,0.361328 0,0.371094 0.29297,0.615235 0.30273,0.24414 0.68359,0.24414 0.66407,0 0.90821,-0.644531 l 1.15234,-2.96875 6.71875,0 1.15234,2.96875 z m -1.70898,-4.3847657 -5.60547,0 2.80273,-7.2167969 2.80274,7.2167969 z" />
    <path
       id="path4158"
       style="font-style:normal;font-variant:normal;font-weight:normal;font-stretch:normal;font-size:20px;font-family:Nunito;-inkscape-font-specification:Nunito;letter-spacing:-1px;fill:#000000;fill-opacity:0.75294118"
       d="m 125.80664,14.732621 q 2.42188,0 3.82813,-1.064453 1.41601,-1.064453 1.41601,-2.978516 0,-0.7910152 -0.24414,-1.3964839 -0.23437,-0.6054688 -0.72266,-1.0351563 -0.47851,-0.4394531 -1.07421,-0.7421875 -0.58594,-0.3027344 -1.43555,-0.5761719 l -2.8125,-0.9082031 q -0.99609,-0.3320312 -1.45508,-0.78125 -0.44922,-0.4589844 -0.44922,-1.2207031 0,-1.015625 0.87891,-1.5527344 0.8789,-0.5371094 2.34375,-0.5371094 1.02539,0 1.92383,0.3320313 0.9082,0.3222656 1.5039,0.7128906 0.20508,0.1367188 0.42969,0.1367188 0.3125,0 0.53711,-0.2441407 0.22461,-0.2441406 0.22461,-0.546875 0,-0.2929687 -0.22461,-0.4882812 -0.66406,-0.5957031 -1.92383,-1.03515626 -1.25,-0.44921875 -2.62695,-0.44921875 -1.40625,0 -2.5293,0.43945313 -1.11328,0.43945308 -1.77734,1.29882808 -0.6543,0.859375 -0.6543,1.9921875 0,1.40625 0.76172,2.2070313 0.76172,0.8007812 2.31445,1.328125 l 2.80274,0.9375 q 0.625,0.2148437 1.01562,0.4003906 0.39063,0.1855469 0.69336,0.4589844 0.3125,0.2734375 0.43945,0.6445308 0.13672,0.361329 0.13672,0.878907 0,1.074218 -0.9082,1.640625 -0.89844,0.566406 -2.32422,0.566406 -2.1875,0 -3.84765,-1.289063 -0.10743,-0.07813 -0.24415,-0.07813 -0.30273,0 -0.60546,0.332032 -0.29297,0.332031 -0.29297,0.644531 0,0.185547 0.11718,0.292969 1.80665,1.679687 4.78516,1.679687 z" />
    <path
       id="path4160"
       style="font-style:normal;font-variant:normal;font-weight:normal;font-stretch:normal;font-size:20px;font-family:Nunito;-inkscape-font-specification:Nunito;letter-spacing:-1px;fill:#000000;fill-opacity:0.75294118"
       d="m 137.3457,14.732621 q 2.42188,0 3.82813,-1.064453 1.41601,-1.064453 1.41601,-2.978516 0,-0.7910152 -0.24414,-1.3964839 -0.23437,-0.6054688 -0.72265,-1.0351563 -0.47852,-0.4394531 -1.07422,-0.7421875 -0.58594,-0.3027344 -1.43555,-0.5761719 l -2.8125,-0.9082031 q -0.99609,-0.3320312 -1.45508,-0.78125 -0.44922,-0.4589844 -0.44922,-1.2207031 0,-1.015625 0.87891,-1.5527344 0.87891,-0.5371094 2.34375,-0.5371094 1.02539,0 1.92383,0.3320313 0.9082,0.3222656 1.50391,0.7128906 0.20507,0.1367188 0.42968,0.1367188 0.3125,0 0.53711,-0.2441407 0.22461,-0.2441406 0.22461,-0.546875 0,-0.2929687 -0.22461,-0.4882812 -0.66406,-0.5957031 -1.92383,-1.03515626 -1.25,-0.44921875 -2.62695,-0.44921875 -1.40625,0 -2.5293,0.43945313 -1.11328,0.43945308 -1.77734,1.29882808 -0.6543,0.859375 -0.6543,1.9921875 0,1.40625 0.76172,2.2070313 0.76172,0.8007812 2.31446,1.328125 l 2.80273,0.9375 q 0.625,0.2148437 1.01562,0.4003906 0.39063,0.1855469 0.69336,0.4589844 0.3125,0.2734375 0.43946,0.6445308 0.13672,0.361329 0.13672,0.878907 0,1.074218 -0.90821,1.640625 -0.89843,0.566406 -2.32422,0.566406 -2.1875,0 -3.84765,-1.289063 -0.10742,-0.07813 -0.24414,-0.07813 -0.30274,0 -0.60547,0.332032 -0.29297,0.332031 -0.29297,0.644531 0,0.185547 0.11719,0.292969 1.80664,1.679687 4.78515,1.679687 z" />
  </g>
  <g
     id="text4160"
     style="font-style:normal;font-weight:normal;font-size:40px;line-height:125%;font-family:sans-serif;letter-spacing:0px;word-spacing:0px;fill:#000000;fill-opacity:0.50196078;stroke:none;stroke-width:1px;stroke-linecap:butt;stroke-linejoin:miter;stroke-opacity:1">
    <path
       id="path4163"
       style="font-style:normal;font-variant:normal;font-weight:bold;font-stretch:normal;font-size:20px;font-family:Nunito;-inkscape-font-specification:'Nunito Bold';letter-spacing:-1px;fill:#000000;fill-opacity:0.50196078"
       d="m 151.98633,14.517777 q 0.5664,0 0.98633,-0.40039 0.41992,-0.400391 0.41992,-1.035156 l 0,-5.5078129 5.21484,6.0351559 q 0.24414,0.302735 0.39063,0.458985 0.14648,0.15625 0.38086,0.302734 0.23437,0.136719 0.45898,0.136719 l 0.0195,0 q 0.53711,0 0.95703,-0.38086 0.42969,-0.380859 0.42969,-0.908203 0,-0.517578 -0.38086,-1.035156 l -4.58008,-5.1074218 4.1211,-4.4628906 q 0.38086,-0.4589844 0.38086,-0.9472657 0,-0.5078125 -0.40039,-0.85937496 -0.4004,-0.36132812 -0.90821,-0.36132812 -0.52734,0 -1.14258,0.76171878 l -4.9414,5.6152343 0,-4.9511718 q 0,-0.6445313 -0.41992,-1.04492191 -0.41993,-0.40039062 -0.98633,-0.40039062 -0.56641,0 -0.98633,0.40039062 -0.41016,0.40039061 -0.41016,1.04492191 l 0,11.2109379 q 0,0.644531 0.41016,1.044921 0.41016,0.390625 0.98633,0.390625 z" />
    <path
       id="path4165"
       style="font-style:normal;font-variant:normal;font-weight:bold;font-stretch:normal;font-size:20px;font-family:Nunito;-inkscape-font-specification:'Nunito Bold';letter-spacing:-1px;fill:#000000;fill-opacity:0.50196078"
       d="m 164.18945,14.517777 7.23633,0 q 0.46875,0 0.74219,-0.322265 0.2832,-0.332031 0.2832,-0.771485 0,-0.439453 -0.2832,-0.771484 -0.27344,-0.332031 -0.74219,-0.332031 l -5.83008,0 0,-3.9160158 5.22461,0 q 0.47852,0 0.76172,-0.3222656 0.29297,-0.3222657 0.29297,-0.7617188 0,-0.4394531 -0.2832,-0.7617187 -0.28321,-0.3222657 -0.77149,-0.3222657 l -5.22461,0 0,-3.59375 5.60547,0 q 0.47852,0 0.76172,-0.3320312 0.2832,-0.3320313 0.2832,-0.7714844 0,-0.4394531 -0.2832,-0.77148436 -0.2832,-0.33203125 -0.76172,-0.33203125 l -6.94336,0 q -0.69336,0 -1.07422,0.46875 -0.37109,0.45898441 -0.37109,1.18164061 l 0,10.8593752 q 0,0.615234 0.40039,1.09375 0.40039,0.478515 0.97656,0.478515 z" />
    <path
       id="path4167"
       style="font-style:normal;font-variant:normal;font-weight:bold;font-stretch:normal;font-size:20px;font-family:Nunito;-inkscape-font-specification:'Nunito Bold';letter-spacing:-1px;fill:#000000;fill-opacity:0.50196078"
       d="m 182.03711,9.3908243 -4.82422,0 2.41211,-6.4355469 2.41211,6.4355469 z m 1.58203,4.2285157 q 0.16602,0.478516 0.50781,0.722656 0.3418,0.234375 0.76172,0.234375 0.52735,0 0.9375,-0.351562 0.41016,-0.351563 0.41016,-0.888672 0,-0.244141 -0.0977,-0.498047 L 181.85156,2.1056681 q -0.41015,-1.0839844 -0.94726,-1.45507816 -0.52735,-0.37109375 -1.2793,-0.37109375 -0.75195,0 -1.28906,0.37109375 -0.52735,0.37109376 -0.9375,1.45507816 L 173.11133,12.83809 q -0.0977,0.253906 -0.0977,0.498047 0,0.537109 0.41016,0.888672 0.41015,0.351562 0.9375,0.351562 0.41992,0 0.76172,-0.234375 0.34179,-0.24414 0.50781,-0.722656 l 0.87891,-2.34375 6.23046,0 0.87891,2.34375 z" />
    <path
       id="path4169"
       style="font-style:normal;font-variant:normal;font-weight:bold;font-stretch:normal;font-size:20px;font-family:Nunito;-inkscape-font-specification:'Nunito Bold';letter-spacing:-1px;fill:#000000;fill-opacity:0.50196078"
       d="m 196.27734,14.527543 q 0.57618,0 0.98633,-0.400391 0.41992,-0.410156 0.41992,-1.064453 l 0,-10.4101559 3.17383,0 q 0.48828,0 0.78125,-0.3320313 0.29297,-0.3320312 0.29297,-0.78125 0,-0.4394531 -0.30273,-0.77148436 -0.29297,-0.34179687 -0.77149,-0.34179687 l -9.16015,0 q -0.48829,0 -0.79102,0.34179687 -0.29297,0.33203126 -0.29297,0.78124996 0,0.4492188 0.29297,0.78125 0.29297,0.3222657 0.79102,0.3222657 l 3.18359,0 0,10.4101559 q 0,0.654297 0.41016,1.064453 0.41992,0.400391 0.98632,0.400391 z" />
    <path
       id="path4171"
       style="font-style:normal;font-variant:normal;font-weight:bold;font-stretch:normal;font-size:20px;font-family:Nunito;-inkscape-font-specification:'Nunito Bold';letter-spacing:-1px;fill:#000000;fill-opacity:0.50196078"
       d="m 204.17383,14.517777 7.23633,0 q 0.46875,0 0.74218,-0.322265 0.28321,-0.332031 0.28321,-0.771485 0,-0.439453 -0.28321,-0.771484 -0.27343,-0.332031 -0.74218,-0.332031 l -5.83008,0 0,-3.9160158 5.22461,0 q 0.47851,0 0.76172,-0.3222656 0.29296,-0.3222657 0.29296,-0.7617188 0,-0.4394531 -0.2832,-0.7617187 -0.2832,-0.3222657 -0.77148,-0.3222657 l -5.22461,0 0,-3.59375 5.60547,0 q 0.47851,0 0.76172,-0.3320312 0.2832,-0.3320313 0.2832,-0.7714844 0,-0.4394531 -0.2832,-0.77148436 -0.28321,-0.33203125 -0.76172,-0.33203125 l -6.94336,0 q -0.69336,0 -1.07422,0.46875 -0.3711,0.45898441 -0.3711,1.18164061 l 0,10.8593752 q 0,0.615234 0.4004,1.09375 0.40039,0.478515 0.97656,0.478515 z" />
    <path
       id="path4173"
       style="font-style:normal;font-variant:normal;font-weight:bold;font-stretch:normal;font-size:20px;font-family:Nunito;-inkscape-font-specification:'Nunito Bold';letter-spacing:-1px;fill:#000000;fill-opacity:0.50196078"
       d="m 222.02148,9.3908243 -4.82421,0 2.4121,-6.4355469 2.41211,6.4355469 z m 1.58204,4.2285157 q 0.16601,0.478516 0.50781,0.722656 0.34179,0.234375 0.76172,0.234375 0.52734,0 0.9375,-0.351562 0.41015,-0.351563 0.41015,-0.888672 0,-0.244141 -0.0976,-0.498047 L 221.83594,2.1056681 q -0.41016,-1.0839844 -0.94727,-1.45507816 -0.52734,-0.37109375 -1.2793,-0.37109375 -0.75195,0 -1.28906,0.37109375 -0.52734,0.37109376 -0.9375,1.45507816 L 213.0957,12.83809 q -0.0976,0.253906 -0.0976,0.498047 0,0.537109 0.41015,0.888672 0.41016,0.351562 0.9375,0.351562 0.41992,0 0.76172,-0.234375 0.3418,-0.24414 0.50781,-0.722656 l 0.87891,-2.34375 6.23047,0 0.87891,2.34375 z" />
    <path
       id="path4175"
       style="font-style:normal;font-variant:normal;font-weight:bold;font-stretch:normal;font-size:20px;font-family:Nunito;-inkscape-font-specification:'Nunito Bold';letter-spacing:-1px;fill:#000000;fill-opacity:0.50196078"
       d="m 235.20117,13.990434 0,-3.408203 -3.39844,-8.1152348 q -0.32226,-0.8300781 -0.9375,-1.2402344 -0.61523,-0.41992186 -1.32812,-0.41992186 -0.84961,0 -1.47461,0.51757816 -0.625,0.5175781 -0.625,1.328125 l 0.01,10.7031249 q 0,0.488281 0.37109,0.761719 0.38086,0.263672 0.89844,0.263672 0.51757,0 0.88867,-0.263672 0.37109,-0.273438 0.37109,-0.761719 l 0,-9.4726562 3.62305,8.7597652 q 0.50781,1.347657 1.60156,1.347657 z m 0.01,0 q 1.08398,0 1.61133,-1.347657 l 3.61328,-8.7597652 0,9.4726562 q 0,0.488281 0.37109,0.761719 0.38086,0.263672 0.89844,0.263672 0.51758,0 0.88867,-0.263672 0.38086,-0.273438 0.38086,-0.761719 l 0,-10.7031249 q 0,-0.8105469 -0.625,-1.328125 -0.625,-0.51757816 -1.46484,-0.51757816 -0.7129,0 -1.32813,0.41992186 -0.61523,0.4101563 -0.9375,1.2402344 l -3.4082,8.1152348 0,3.408203 z" />
  </g>
</svg>
