<?xml version="1.0" encoding="UTF-8" standalone="no"?>
<svg
   xmlns:dc="http://purl.org/dc/elements/1.1/"
   xmlns:cc="http://creativecommons.org/ns#"
   xmlns:rdf="http://www.w3.org/1999/02/22-rdf-syntax-ns#"
   xmlns:svg="http://www.w3.org/2000/svg"
   xmlns="http://www.w3.org/2000/svg"
   width="256"
   height="14.80704"
   viewBox="0 0 256.00001 14.80704"
   id="svg2"
   version="1.1">
  <defs
     id="defs4" />
  <metadata
     id="metadata7">
    <rdf:RDF>
      <cc:Work
         rdf:about="">
        <dc:format>image/svg+xml</dc:format>
        <dc:type
           rdf:resource="http://purl.org/dc/dcmitype/StillImage" />
        <dc:title></dc:title>
      </cc:Work>
    </rdf:RDF>
  </metadata>
  <g
     transform="matrix(0.51200001,0,0,0.51200001,-46.481194,-150.7697)"
     style="font-style:normal;font-weight:normal;font-size:40px;line-height:125%;font-family:Sans;letter-spacing:0px;word-spacing:0px;fill:#000000;fill-opacity:0.62745098;stroke:none;stroke-width:1px;stroke-linecap:butt;stroke-linejoin:miter;stroke-opacity:1"
     id="text4136">
    <path
       d="m 118.50358,319.95207 q 0.24,0.52 0.24,1.04 0,0.92 -0.76,1.56 -0.72,0.64 -1.68,0.64 -0.64,0 -1.2,-0.32 -0.56,-0.36 -0.88,-1.08 l -2.4,-5.36 -14.08,0 -2.4,5.36 q -0.32,0.72 -0.88,1.08 -0.56,0.32 -1.24,0.32 -0.92,0 -1.68,-0.64 -0.76,-0.64 -0.76,-1.56 0,-0.52 0.24,-1.04 l 11.04,-23.72 q 0.36,-0.8 1.08,-1.2 0.76,-0.44 1.6,-0.44 0.84,0 1.56,0.44 0.76,0.4 1.12,1.2 l 11.08,23.72 z m -19,-7.52 10.56,0 -5.28,-11.88 -5.28,11.88 z"
       style="font-style:normal;font-variant:normal;font-weight:bold;font-stretch:normal;font-family:Nunito;-inkscape-font-specification:'Nunito Bold';letter-spacing:-1px;fill:#000000;fill-opacity:0.62745098"
       id="path4202" />
    <path
       d="m 144.19108,319.79207 q 0.48,0.72 0.48,1.4 0,0.92 -0.76,1.52 -0.72,0.6 -1.72,0.6 -0.64,0 -1.24,-0.28 -0.56,-0.32 -0.96,-0.92 l -5.32,-8.08 q -0.8,-1.28 -1.72,-1.8 -0.88,-0.52 -2.32,-0.52 l -3.92,0 0,8.96 q 0,1.2 -0.68,1.92 -0.68,0.68 -1.84,0.68 -1.16,0 -1.88,-0.68 -0.68,-0.72 -0.68,-1.92 l 0,-23.4 q 0,-1.16 0.64,-1.8 0.68,-0.64 1.84,-0.64 l 10,0 q 4.8,0 7.28,2.16 2.52,2.12 2.52,6.16 0,3.28 -1.88,5.4 -1.84,2.08 -5.24,2.68 1.16,0.28 2.04,1 0.88,0.72 1.72,2 l 3.64,5.56 z m -10.8,-12.04 q 2.92,0 4.28,-1.08 1.36,-1.12 1.36,-3.4 0,-2.32 -1.36,-3.36 -1.36,-1.08 -4.28,-1.08 l -6.72,0 0,8.92 6.72,0 z"
       style="font-style:normal;font-variant:normal;font-weight:bold;font-stretch:normal;font-family:Nunito;-inkscape-font-specification:'Nunito Bold';letter-spacing:-1px;fill:#000000;fill-opacity:0.62745098"
       id="path4204" />
    <path
       d="m 156.90233,323.23207 q -1.2,0 -1.92,-0.68 -0.68,-0.72 -0.68,-1.88 l 0,-21.6 -7.28,0 q -2.4,0 -2.4,-2.12 0,-2.12 2.4,-2.12 l 19.72,0 q 2.4,0 2.4,2.12 0,2.12 -2.4,2.12 l -7.28,0 0,21.6 q 0,1.16 -0.72,1.88 -0.68,0.68 -1.84,0.68 z"
       style="font-style:normal;font-variant:normal;font-weight:bold;font-stretch:normal;font-family:Nunito;-inkscape-font-specification:'Nunito Bold';letter-spacing:-1px;fill:#000000;fill-opacity:0.62745098"
       id="path4206" />
    <path
       d="m 193.23358,294.63207 q 1.16,0 1.84,0.72 0.68,0.68 0.68,1.84 l 0,23.48 q 0,1.16 -0.72,1.88 -0.68,0.72 -1.8,0.72 -1.16,0 -1.84,-0.72 -0.68,-0.72 -0.68,-1.88 l 0,-9.88 -14.44,0 0,9.88 q 0,1.16 -0.72,1.88 -0.68,0.72 -1.84,0.72 -1.12,0 -1.84,-0.72 -0.68,-0.72 -0.68,-1.88 l 0,-23.48 q 0,-1.16 0.68,-1.84 0.68,-0.72 1.84,-0.72 1.16,0 1.84,0.72 0.72,0.68 0.72,1.84 l 0,9.44 14.44,0 0,-9.44 q 0,-1.16 0.68,-1.84 0.68,-0.72 1.84,-0.72 z"
       style="font-style:normal;font-variant:normal;font-weight:bold;font-stretch:normal;font-family:Nunito;-inkscape-font-specification:'Nunito Bold';letter-spacing:-1px;fill:#000000;fill-opacity:0.62745098"
       id="path4208" />
    <path
       d="m 212.45858,323.39207 q -5.8,0 -8.8,-3 -3,-3 -3,-8.76 l 0,-14.44 q 0,-1.16 0.68,-1.84 0.68,-0.72 1.84,-0.72 1.16,0 1.84,0.72 0.68,0.68 0.68,1.84 l 0,14.72 q 0,3.64 1.72,5.52 1.72,1.84 5.04,1.84 3.28,0 5,-1.88 1.72,-1.88 1.72,-5.48 l 0,-14.72 q 0,-1.16 0.68,-1.84 0.68,-0.72 1.84,-0.72 1.16,0 1.84,0.72 0.68,0.68 0.68,1.84 l 0,14.44 q 0,5.72 -3,8.76 -3,3 -8.76,3 z"
       style="font-style:normal;font-variant:normal;font-weight:bold;font-stretch:normal;font-family:Nunito;-inkscape-font-specification:'Nunito Bold';letter-spacing:-1px;fill:#000000;fill-opacity:0.62745098"
       id="path4210" />
    <path
       d="m 251.67545,319.79207 q 0.48,0.72 0.48,1.4 0,0.92 -0.76,1.52 -0.72,0.6 -1.72,0.6 -0.64,0 -1.24,-0.28 -0.56,-0.32 -0.96,-0.92 l -5.32,-8.08 q -0.8,-1.28 -1.72,-1.8 -0.88,-0.52 -2.32,-0.52 l -3.92,0 0,8.96 q 0,1.2 -0.68,1.92 -0.68,0.68 -1.84,0.68 -1.16,0 -1.88,-0.68 -0.68,-0.72 -0.68,-1.92 l 0,-23.4 q 0,-1.16 0.64,-1.8 0.68,-0.64 1.84,-0.64 l 10,0 q 4.8,0 7.28,2.16 2.52,2.12 2.52,6.16 0,3.28 -1.88,5.4 -1.84,2.08 -5.24,2.68 1.16,0.28 2.04,1 0.88,0.72 1.72,2 l 3.64,5.56 z m -10.8,-12.04 q 2.92,0 4.28,-1.08 1.36,-1.12 1.36,-3.4 0,-2.32 -1.36,-3.36 -1.36,-1.08 -4.28,-1.08 l -6.72,0 0,8.92 6.72,0 z"
       style="font-style:normal;font-variant:normal;font-weight:bold;font-stretch:normal;font-family:Nunito;-inkscape-font-specification:'Nunito Bold';letter-spacing:-1px;fill:#000000;fill-opacity:0.62745098"
       id="path4212" />
    <path
       d="m 257.76795,306.67207 q -1.44,0 -1.68,-1.6 l -0.96,-7.08 q -0.08,-0.56 -0.08,-0.76 0,-1.24 0.72,-1.92 0.76,-0.68 1.96,-0.68 1.24,0 1.96,0.68 0.72,0.68 0.72,1.92 0,0.2 -0.08,0.76 l -0.92,7.08 q -0.24,1.6 -1.64,1.6 z"
       style="font-style:normal;font-variant:normal;font-weight:bold;font-stretch:normal;font-family:Nunito;-inkscape-font-specification:'Nunito Bold';letter-spacing:-1px;fill:#000000;fill-opacity:0.62745098"
       id="path4214" />
    <path
       d="m 274.37545,323.39207 q -3.08,0 -5.84,-0.8 -2.72,-0.84 -4.44,-2.24 -0.92,-0.68 -0.92,-1.92 0,-0.84 0.48,-1.44 0.52,-0.64 1.2,-0.64 0.72,0 1.64,0.56 1.72,1.24 3.6,1.8 1.88,0.56 4.16,0.56 2.92,0 4.48,-1 1.56,-1.04 1.56,-3 0,-1.52 -1.48,-2.32 -1.44,-0.84 -4.84,-1.6 -3.52,-0.76 -5.72,-1.76 -2.2,-1 -3.32,-2.56 -1.12,-1.56 -1.12,-3.96 0,-2.48 1.4,-4.44 1.4,-1.96 3.88,-3.04 2.52,-1.12 5.64,-1.12 5.72,0 9.32,3.04 0.52,0.44 0.72,0.88 0.24,0.4 0.24,1.04 0,0.84 -0.52,1.48 -0.48,0.6 -1.16,0.6 -0.4,0 -0.76,-0.12 -0.32,-0.12 -0.88,-0.44 -1.64,-1.2 -3.2,-1.76 -1.52,-0.6 -3.76,-0.6 -2.72,0 -4.32,1.12 -1.56,1.08 -1.56,3.04 0,1.64 1.4,2.52 1.4,0.88 4.76,1.64 3.56,0.8 5.76,1.8 2.24,0.96 3.4,2.48 1.2,1.52 1.2,3.8 0,2.48 -1.4,4.4 -1.36,1.88 -3.88,2.96 -2.48,1.04 -5.72,1.04 z"
       style="font-style:normal;font-variant:normal;font-weight:bold;font-stretch:normal;font-family:Nunito;-inkscape-font-specification:'Nunito Bold';letter-spacing:-1px;fill:#000000;fill-opacity:0.62745098"
       id="path4216" />
    <path
       d="m 301.5817,323.27207 q -1.16,0 -1.88,-0.68 -0.68,-0.72 -0.68,-1.92 l 0,-23.4 q 0,-1.16 0.64,-1.8 0.68,-0.64 1.84,-0.64 l 9.84,0 q 4.52,0 7.04,2.28 2.52,2.24 2.52,6.32 0,4.08 -2.52,6.36 -2.52,2.28 -7.04,2.28 l -7.16,0 0,8.6 q 0,1.2 -0.72,1.92 -0.68,0.68 -1.88,0.68 z m 9.12,-15.16 q 5.32,0 5.32,-4.64 0,-4.64 -5.32,-4.64 l -6.52,0 0,9.28 6.52,0 z"
       style="font-style:normal;font-variant:normal;font-weight:bold;font-stretch:normal;font-family:Nunito;-inkscape-font-specification:'Nunito Bold';letter-spacing:-1px;fill:#000000;fill-opacity:0.62745098"
       id="path4218" />
    <path
       d="m 347.0192,319.95207 q 0.24,0.52 0.24,1.04 0,0.92 -0.76,1.56 -0.72,0.64 -1.68,0.64 -0.64,0 -1.2,-0.32 -0.56,-0.36 -0.88,-1.08 l -2.4,-5.36 -14.08,0 -2.4,5.36 q -0.32,0.72 -0.88,1.08 -0.56,0.32 -1.24,0.32 -0.92,0 -1.68,-0.64 -0.76,-0.64 -0.76,-1.56 0,-0.52 0.24,-1.04 l 11.04,-23.72 q 0.36,-0.8 1.08,-1.2 0.76,-0.44 1.6,-0.44 0.84,0 1.56,0.44 0.76,0.4 1.12,1.2 l 11.08,23.72 z m -19,-7.52 10.56,0 -5.28,-11.88 -5.28,11.88 z"
       style="font-style:normal;font-variant:normal;font-weight:bold;font-stretch:normal;font-family:Nunito;-inkscape-font-specification:'Nunito Bold';letter-spacing:-1px;fill:#000000;fill-opacity:0.62745098"
       id="path4220" />
    <path
       d="m 359.5942,323.39207 q -3.08,0 -5.84,-0.8 -2.72,-0.84 -4.44,-2.24 -0.92,-0.68 -0.92,-1.92 0,-0.84 0.48,-1.44 0.52,-0.64 1.2,-0.64 0.72,0 1.64,0.56 1.72,1.24 3.6,1.8 1.88,0.56 4.16,0.56 2.92,0 4.48,-1 1.56,-1.04 1.56,-3 0,-1.52 -1.48,-2.32 -1.44,-0.84 -4.84,-1.6 -3.52,-0.76 -5.72,-1.76 -2.2,-1 -3.32,-2.56 -1.12,-1.56 -1.12,-3.96 0,-2.48 1.4,-4.44 1.4,-1.96 3.88,-3.04 2.52,-1.12 5.64,-1.12 5.72,0 9.32,3.04 0.52,0.44 0.72,0.88 0.24,0.4 0.24,1.04 0,0.84 -0.52,1.48 -0.48,0.6 -1.16,0.6 -0.4,0 -0.76,-0.12 -0.32,-0.12 -0.88,-0.44 -1.64,-1.2 -3.2,-1.76 -1.52,-0.6 -3.76,-0.6 -2.72,0 -4.32,1.12 -1.56,1.08 -1.56,3.04 0,1.64 1.4,2.52 1.4,0.88 4.76,1.64 3.56,0.8 5.76,1.8 2.24,0.96 3.4,2.48 1.2,1.52 1.2,3.8 0,2.48 -1.4,4.4 -1.36,1.88 -3.88,2.96 -2.48,1.04 -5.72,1.04 z"
       style="font-style:normal;font-variant:normal;font-weight:bold;font-stretch:normal;font-family:Nunito;-inkscape-font-specification:'Nunito Bold';letter-spacing:-1px;fill:#000000;fill-opacity:0.62745098"
       id="path4222" />
    <path
       d="m 384.14108,323.39207 q -3.08,0 -5.84,-0.8 -2.72,-0.84 -4.44,-2.24 -0.92,-0.68 -0.92,-1.92 0,-0.84 0.48,-1.44 0.52,-0.64 1.2,-0.64 0.72,0 1.64,0.56 1.72,1.24 3.6,1.8 1.88,0.56 4.16,0.56 2.92,0 4.48,-1 1.56,-1.04 1.56,-3 0,-1.52 -1.48,-2.32 -1.44,-0.84 -4.84,-1.6 -3.52,-0.76 -5.72,-1.76 -2.2,-1 -3.32,-2.56 -1.12,-1.56 -1.12,-3.96 0,-2.48 1.4,-4.44 1.4,-1.96 3.88,-3.04 2.52,-1.12 5.64,-1.12 5.72,0 9.32,3.04 0.52,0.44 0.72,0.88 0.24,0.4 0.24,1.04 0,0.84 -0.52,1.48 -0.48,0.6 -1.16,0.6 -0.4,0 -0.76,-0.12 -0.32,-0.12 -0.88,-0.44 -1.64,-1.2 -3.2,-1.76 -1.52,-0.6 -3.76,-0.6 -2.72,0 -4.32,1.12 -1.56,1.08 -1.56,3.04 0,1.64 1.4,2.52 1.4,0.88 4.76,1.64 3.56,0.8 5.76,1.8 2.24,0.96 3.4,2.48 1.2,1.52 1.2,3.8 0,2.48 -1.4,4.4 -1.36,1.88 -3.88,2.96 -2.48,1.04 -5.72,1.04 z"
       style="font-style:normal;font-variant:normal;font-weight:bold;font-stretch:normal;font-family:Nunito;-inkscape-font-specification:'Nunito Bold';letter-spacing:-1px;fill:#000000;fill-opacity:0.62745098"
       id="path4224" />
  </g>
  <g
     transform="matrix(0.51200001,0,0,0.51200001,1.3216422e-7,-2.7847206e-6)"
     style="fill:#000000;fill-opacity:0.50196078"
     id="g4206">
    <path
       d="m 337.67124,26.09999 q 0.56,0.52 0.56,1.16 0,0.56 -0.48,1.04 -0.44,0.44 -1.04,0.44 -0.52,0 -1.08,-0.48 l -14.96,-13.08 0,11.92 q 0,0.76 -0.44,1.24 -0.44,0.44 -1.2,0.44 -0.76,0 -1.2,-0.44 -0.44,-0.48 -0.44,-1.24 l 0,-25.24 q 0,-0.76 0.44,-1.2 0.44,-0.48 1.2,-0.48 0.76,0 1.2,0.48 0.44,0.44 0.44,1.2 l 0,11.48 14.28,-12.68 q 0.44,-0.44 1.04,-0.44 0.6,0 1.04,0.48 0.44,0.44 0.44,1 0,0.6 -0.52,1.12 l -12.92,11.36 13.64,11.92 z"
       style="font-style:normal;font-variant:normal;font-weight:normal;font-stretch:normal;font-size:medium;line-height:125%;font-family:Nunito;-inkscape-font-specification:Nunito;letter-spacing:-1px;word-spacing:0px;fill:#000000;fill-opacity:0.50196078;stroke:none;stroke-width:1px;stroke-linecap:butt;stroke-linejoin:miter;stroke-opacity:1"
       id="path4227" />
    <path
       d="m 343.22749,28.57999 q -0.76,0 -1.24,-0.44 -0.44,-0.44 -0.44,-1.16 l 0,-25 q 0,-0.72 0.44,-1.16 0.48,-0.44 1.24,-0.44 l 14.96,0 q 0.72,0 1.12,0.36 0.4,0.36 0.4,1 0,0.64 -0.4,1 -0.4,0.36 -1.12,0.36 l -13.4,0 0,9.8 12.6,0 q 0.72,0 1.12,0.36 0.4,0.36 0.4,1 0,0.64 -0.4,1 -0.4,0.36 -1.12,0.36 l -12.6,0 0,10.24 13.4,0 q 0.72,0 1.12,0.36 0.4,0.32 0.4,1 0,0.64 -0.4,1 -0.4,0.36 -1.12,0.36 l -14.96,0 z"
       style="font-style:normal;font-variant:normal;font-weight:normal;font-stretch:normal;font-size:medium;line-height:125%;font-family:Nunito;-inkscape-font-specification:Nunito;letter-spacing:-1px;word-spacing:0px;fill:#000000;fill-opacity:0.50196078;stroke:none;stroke-width:1px;stroke-linecap:butt;stroke-linejoin:miter;stroke-opacity:1"
       id="path4229" />
    <path
       d="m 387.56187,26.69999 q 0.16,0.32 0.16,0.68 0,0.6 -0.48,1 -0.44,0.4 -1.08,0.4 -1,0 -1.4,-0.96 l -2.84,-6.48 -15.08,0 -2.88,6.48 q -0.4,0.96 -1.4,0.96 -0.64,0 -1.12,-0.4 -0.48,-0.44 -0.48,-1.04 0,-0.32 0.16,-0.64 l 11.44,-25.44 q 0.24,-0.56 0.72,-0.84 0.48,-0.28 1.04,-0.28 0.6,0 1.08,0.32 0.48,0.28 0.72,0.8 l 11.44,25.44 z m -19.52,-8.08 12.68,0 -6.36,-14.36 -6.32,14.36 z"
       style="font-style:normal;font-variant:normal;font-weight:normal;font-stretch:normal;font-size:medium;line-height:125%;font-family:Nunito;-inkscape-font-specification:Nunito;letter-spacing:-1px;word-spacing:0px;fill:#000000;fill-opacity:0.50196078;stroke:none;stroke-width:1px;stroke-linecap:butt;stroke-linejoin:miter;stroke-opacity:1"
       id="path4231" />
    <path
       d="m 409.13687,28.77999 q -0.76,0 -1.24,-0.44 -0.44,-0.48 -0.44,-1.24 l 0,-23.92 -8.6,0 q -0.72,0 -1.12,-0.36 -0.4,-0.36 -0.4,-1.04 0,-0.68 0.4,-1.04 0.4,-0.36 1.12,-0.36 l 20.52,0 q 0.72,0 1.12,0.36 0.4,0.36 0.4,1.04 0,0.68 -0.4,1.04 -0.4,0.36 -1.12,0.36 l -8.6,0 0,23.92 q 0,0.76 -0.44,1.24 -0.44,0.44 -1.2,0.44 z"
       style="font-style:normal;font-variant:normal;font-weight:normal;font-stretch:normal;font-size:medium;line-height:125%;font-family:Nunito;-inkscape-font-specification:Nunito;letter-spacing:-1px;word-spacing:0px;fill:#000000;fill-opacity:0.50196078;stroke:none;stroke-width:1px;stroke-linecap:butt;stroke-linejoin:miter;stroke-opacity:1"
       id="path4233" />
    <path
       d="m 425.24312,28.57999 q -0.76,0 -1.24,-0.44 -0.44,-0.44 -0.44,-1.16 l 0,-25 q 0,-0.72 0.44,-1.16 0.48,-0.44 1.24,-0.44 l 14.96,0 q 0.72,0 1.12,0.36 0.4,0.36 0.4,1 0,0.64 -0.4,1 -0.4,0.36 -1.12,0.36 l -13.4,0 0,9.8 12.6,0 q 0.72,0 1.12,0.36 0.4,0.36 0.4,1 0,0.64 -0.4,1 -0.4,0.36 -1.12,0.36 l -12.6,0 0,10.24 13.4,0 q 0.72,0 1.12,0.36 0.4,0.32 0.4,1 0,0.64 -0.4,1 -0.4,0.36 -1.12,0.36 l -14.96,0 z"
       style="font-style:normal;font-variant:normal;font-weight:normal;font-stretch:normal;font-size:medium;line-height:125%;font-family:Nunito;-inkscape-font-specification:Nunito;letter-spacing:-1px;word-spacing:0px;fill:#000000;fill-opacity:0.50196078;stroke:none;stroke-width:1px;stroke-linecap:butt;stroke-linejoin:miter;stroke-opacity:1"
       id="path4235" />
    <path
       d="m 469.57749,26.69999 q 0.16,0.32 0.16,0.68 0,0.6 -0.48,1 -0.44,0.4 -1.08,0.4 -1,0 -1.4,-0.96 l -2.84,-6.48 -15.08,0 -2.88,6.48 q -0.4,0.96 -1.4,0.96 -0.64,0 -1.12,-0.4 -0.48,-0.44 -0.48,-1.04 0,-0.32 0.16,-0.64 l 11.44,-25.44 q 0.24,-0.56 0.72,-0.84 0.48,-0.28 1.04,-0.28 0.6,0 1.08,0.32 0.48,0.28 0.72,0.8 l 11.44,25.44 z m -19.52,-8.08 12.68,0 -6.36,-14.36 -6.32,14.36 z"
       style="font-style:normal;font-variant:normal;font-weight:normal;font-stretch:normal;font-size:medium;line-height:125%;font-family:Nunito;-inkscape-font-specification:Nunito;letter-spacing:-1px;word-spacing:0px;fill:#000000;fill-opacity:0.50196078;stroke:none;stroke-width:1px;stroke-linecap:butt;stroke-linejoin:miter;stroke-opacity:1"
       id="path4237" />
    <path
       d="m 498.39999,0.17999 q 0.76,0 1.16,0.48 0.44,0.44 0.44,1.2 l 0,25.32 q 0,0.72 -0.4,1.16 -0.4,0.44 -1.12,0.44 -0.72,0 -1.08,-0.44 -0.36,-0.44 -0.36,-1.16 l 0,-20.44 -8.68,16.64 q -0.56,1.16 -1.64,1.16 -1.04,0 -1.64,-1.16 l -8.72,-16.44 0,20.24 q 0,0.72 -0.4,1.16 -0.36,0.44 -1.08,0.44 -0.72,0 -1.12,-0.44 -0.4,-0.44 -0.4,-1.16 l 0,-25.32 q 0,-0.76 0.44,-1.2 0.44,-0.48 1.2,-0.48 1,0 1.6,1.16 l 10.16,19.48 10.04,-19.48 q 0.32,-0.64 0.68,-0.88 0.4,-0.28 0.92,-0.28 z"
       style="font-style:normal;font-variant:normal;font-weight:normal;font-stretch:normal;font-size:medium;line-height:125%;font-family:Nunito;-inkscape-font-specification:Nunito;letter-spacing:-1px;word-spacing:0px;fill:#000000;fill-opacity:0.50196078;stroke:none;stroke-width:1px;stroke-linecap:butt;stroke-linejoin:miter;stroke-opacity:1"
       id="path4239" />
  </g>
</svg>
