<?xml version="1.0" standalone="no"?>
<!DOCTYPE svg PUBLIC "-//W3C//DTD SVG 20010904//EN"
 "http://www.w3.org/TR/2001/REC-SVG-20010904/DTD/svg10.dtd">
<svg version="1.0" xmlns="http://www.w3.org/2000/svg"
 width="16.000000pt" height="16.000000pt" viewBox="0 0 16.000000 16.000000"
 preserveAspectRatio="xMidYMid meet">
<metadata>
Created by potrace 1.11, written by Peter Selinger 2001-2013
</metadata>
<g transform="translate(0.000000,16.000000) scale(0.002286,-0.002286)"
fill="#000000" stroke="none">
<path d="M2625 5258 c-40 -22 -65 -52 -75 -90 -23 -84 -44 -60 667 -769 362
-362 668 -662 680 -668 12 -6 41 -11 64 -11 98 0 163 94 129 187 -12 32 -1300
1326 -1342 1349 -32 17 -95 18 -123 2z"/>
<path d="M1865 5246 c-51 -22 -85 -71 -85 -122 0 -25 6 -57 14 -72 18 -33
1672 -1685 1703 -1701 12 -6 41 -11 64 -11 102 0 166 99 125 193 -18 42 -1681
1703 -1719 1717 -37 13 -65 12 -102 -4z"/>
<path d="M1135 5196 c-51 -22 -85 -71 -85 -122 0 -25 6 -57 14 -72 23 -42
2017 -2030 2049 -2042 16 -5 40 -10 54 -10 36 0 97 37 116 70 21 35 22 102 3
138 -23 42 -2017 2030 -2049 2042 -37 13 -65 12 -102 -4z"/>
<path d="M5690 4979 c-34 -13 -2246 -2226 -2265 -2265 -32 -68 -7 -152 56
-186 38 -20 90 -23 122 -7 31 16 2255 2238 2273 2271 57 109 -67 234 -186 187z"/>
<path d="M5740 4249 c-35 -14 -1907 -1887 -1925 -1925 -32 -68 -7 -152 56
-186 38 -20 90 -23 122 -7 31 16 1915 1898 1933 1931 28 54 13 118 -40 167
-29 27 -104 38 -146 20z"/>
<path d="M5724 3461 c-21 -16 -373 -363 -781 -772 -656 -658 -742 -748 -748
-781 -21 -115 58 -194 172 -173 34 6 123 91 772 738 403 403 751 754 772 780
32 40 39 57 39 93 0 88 -55 144 -141 144 -35 0 -55 -7 -85 -29z"/>
<path d="M2489 2898 c-93 -112 -174 -269 -215 -414 -32 -110 -44 -326 -25
-437 20 -114 85 -296 112 -313 5 -3 9 23 9 58 0 75 22 173 51 229 22 44 96
129 111 129 6 0 27 -13 47 -29 200 -157 503 -144 688 31 38 37 53 58 53 78 0
133 -625 709 -770 710 -18 0 -36 -13 -61 -42z"/>
</g>
</svg>
